<?xml version="1.0" encoding="UTF-8" standalone="no"?>
<!-- Created with Inkscape (http://www.inkscape.org/) -->

<svg
   xmlns:dc="http://purl.org/dc/elements/1.1/"
   xmlns:cc="http://creativecommons.org/ns#"
   xmlns:rdf="http://www.w3.org/1999/02/22-rdf-syntax-ns#"
   xmlns:svg="http://www.w3.org/2000/svg"
   xmlns="http://www.w3.org/2000/svg"
   xmlns:sodipodi="http://sodipodi.sourceforge.net/DTD/sodipodi-0.dtd"
   xmlns:inkscape="http://www.inkscape.org/namespaces/inkscape"
   id="svg2"
   version="1.1"
   inkscape:version="0.48.4 r9939"
   width="663.71625"
   height="689.9825"
   xml:space="preserve"
   sodipodi:docname="copyurl.svg"
   inkscape:export-filename="/home/brn/coyurl_32.png"
   inkscape:export-xdpi="19.200001"
   inkscape:export-ydpi="19.200001"><metadata
     id="metadata8"><rdf:RDF><cc:Work
         rdf:about=""><dc:format>image/svg+xml</dc:format><dc:type
           rdf:resource="http://purl.org/dc/dcmitype/StillImage" /><dc:title></dc:title></cc:Work></rdf:RDF></metadata><defs
     id="defs6"><clipPath
       clipPathUnits="userSpaceOnUse"
       id="clipPath18"><path
         d="m 0,551.986 530.973,0 L 530.973,0 0,0 0,551.986 z"
         id="path20" /></clipPath></defs><sodipodi:namedview
     pagecolor="#ffffff"
     bordercolor="#666666"
     borderopacity="1"
     objecttolerance="10"
     gridtolerance="10"
     guidetolerance="10"
     inkscape:pageopacity="0"
     inkscape:pageshadow="2"
     inkscape:window-width="998"
     inkscape:window-height="575"
     id="namedview4"
     showgrid="false"
     inkscape:zoom="1.2966667"
     inkscape:cx="185.95758"
     inkscape:cy="457.85548"
     inkscape:window-x="26"
     inkscape:window-y="0"
     inkscape:window-maximized="1"
     inkscape:current-layer="g3069" /><g
     id="g10"
     inkscape:groupmode="layer"
     inkscape:label="GitHub-Mark"
     transform="matrix(1.25,0,0,-1.25,0,689.9825)"><g
       id="g14"><g
         id="g16"
         clip-path="url(#clipPath18)" /></g><g
       id="layer1"
       transform="matrix(0.8,0,0,-0.8,76.682542,816.12883)"><path
         sodipodi:type="arc"
         style="fill:#1b1817;fill-opacity:1"
         id="path3375"
         sodipodi:cx="327.75577"
         sodipodi:cy="213.21031"
         sodipodi:rx="89.972168"
         sodipodi:ry="77.52066"
         d="m 417.72794,213.21031 a 89.972168,77.52066 0 1 1 -179.94434,0 89.972168,77.52066 0 1 1 179.94434,0 z"
         transform="matrix(0.83359112,0,0,0.96748402,-41.568141,321.60861)" /><g
         id="g6783"
         transform="matrix(0.87329079,0,0,0.87329079,92.104188,156.75705)"
         style="fill:#ffffff"><path
           id="rect6587"
           d="m 134.94,354 c -3.324,0 -6,2.676 -6,6 v 96 c 0,3.324 2.676,6 6,6 h 82 c 3.324,0 6,-2.676 6,-6 v -62 h -40 c -3.324,0 -6,-2.676 -6,-6 v -34 h -42 z"
           style="fill:#ffffff"
           inkscape:connector-curvature="0" /><path
           id="rect6587-3-9-6-6"
           d="m 113.66,374.22 c -3.324,0 -6,2.676 -6,6 v 96 c 0,3.324 2.676,6 6,6 h 82 c 3.324,0 6,-2.676 6,-6 v -7 h -73 c -3.324,0 -6,-2.676 -6,-6 v -89 h -9 z"
           style="fill:#ffffff"
           inkscape:connector-curvature="0" /><path
           id="rect6587-3-2-9-2"
           d="m 180.94,354 v 30 c 0,3.324 2.676,6 6,6 h 36 z"
           sodipodi:nodetypes="csscc"
           style="fill:#ffffff"
           inkscape:connector-curvature="0" /></g><g
         id="g3069"
         transform="translate(811.44593,126.51576)"><path
           style="fill:#333333;fill-opacity:1"
           d="m -583.09333,424.2228 c -3.94351,-1.31937 -6.75527,-4.72201 -7.34538,-8.88893 -0.24883,-1.75705 -0.16081,-2.68781 0.43855,-4.63684 0.81799,-2.66007 1.67871,-3.73452 8.38828,-10.47099 6.05757,-6.0819 6.65178,-6.609 8.36031,-7.41588 3.28327,-1.55056 6.38013,-1.73104 9.32098,-0.54316 4.00268,1.61675 5.52313,4.24807 3.57837,6.19282 -1.25253,1.25253 -2.32997,1.21075 -4.40537,-0.17081 -1.42798,-0.95057 -2.12305,-1.11888 -4.07974,-0.98799 -1.64229,0.10989 -2.80595,1.03319 -8.79256,6.97643 -6.47025,6.4234 -7.14075,7.31996 -7.14532,9.55421 -0.005,2.00905 1.09091,3.86552 2.8178,4.77725 0.96063,0.50718 3.4051,0.4967 4.61267,-0.0198 0.51378,-0.21974 1.61738,-1.05562 2.45248,-1.85752 1.37782,-1.32307 1.56123,-1.42663 1.98187,-1.11906 0.72829,0.53254 3.98459,1.16637 5.25962,1.02378 l 1.14317,-0.1278 -3.20167,3.10253 c -3.38175,3.27703 -4.64914,4.10768 -7.33365,4.80653 -2.00895,0.52299 -4.10712,0.45547 -6.05044,-0.19471 z m 14.43135,-12.6663 c -2.85949,-0.50728 -6.112,-2.76279 -6.43024,-4.45916 -0.45612,-2.43136 2.55027,-4.2504 4.4664,-2.70242 1.23805,1.00016 2.58279,1.50913 3.9956,1.51225 2.47376,0.006 3.14155,-0.49555 10.32919,-7.74986 7.06951,-7.13508 7.19022,-7.30171 7.17063,-9.89926 -0.0117,-1.57667 -0.46986,-2.58119 -1.64861,-3.61617 -1.13192,-0.99385 -2.38918,-1.37978 -3.96503,-1.21715 -1.77216,0.1829 -2.65685,0.68718 -4.66502,2.65909 l -1.72994,1.69867 -1.20169,-0.53157 c -0.81633,-0.36109 -1.90056,-0.57143 -3.38069,-0.65582 l -2.17897,-0.12427 2.65824,-2.68993 c 1.46204,-1.47947 3.29561,-3.16723 4.07454,-3.75057 4.39282,-3.28967 10.26841,-3.14599 14.19512,0.34712 3.9305,3.49647 4.71661,8.95472 2.00489,13.9205 -0.42286,0.77432 -3.11828,3.6662 -7.66287,8.22129 -7.24515,7.26187 -7.95189,7.83219 -10.74915,8.67404 -1.49488,0.44989 -3.87232,0.61335 -5.2824,0.36319 z"
           id="path3071"
           inkscape:connector-curvature="0"
           sodipodi:nodetypes="cscsssscsscscssscssccssssscssscsscscscsss" /></g></g></g></svg>